<svg xmlns="http://www.w3.org/2000/svg" width="120" height="120" viewBox="0 0 120 120"><defs><linearGradient id="gdfv" x1="0" y1="0" x2="0" y2="1"><stop offset="0" stop-color="#15110C"/><stop offset="1" stop-color="#0C0A08"/></linearGradient><linearGradient id="prfv" gradientUnits="userSpaceOnUse" x1="44" y1="49" x2="52" y2="71"><stop offset="0" stop-color="#FFB23A"/><stop offset="1" stop-color="#FF7A18"/></linearGradient><clipPath id="gpfv"><path clip-rule="evenodd" d="M0 0 H120 V120 H0 Z M78 49 H108 V71 H78 Z"/></clipPath></defs><rect x="4" y="4" width="112" height="112" rx="26" fill="url(#gdfv)"/><path clip-path="url(#gpfv)" d="M31 22 H86 C97 22 101 28 96 38 L86 60 L96 82 C101 92 97 98 86 98 H31 Q19 98 19 86 V34 Q19 22 31 22 Z" fill="none" stroke="#E9E1D4" stroke-width="8" stroke-linejoin="round"/><polyline points="36,49 52,60 36,71" fill="none" stroke="url(#prfv)" stroke-width="6" stroke-linecap="round" stroke-linejoin="round"/><line x1="53" y1="71" x2="69" y2="71" stroke="url(#prfv)" stroke-width="6" stroke-linecap="round"/></svg>